<svg width="3002" height="1068" viewBox="0 0 3002 1068" fill="none" xmlns="http://www.w3.org/2000/svg">
<g clip-path="url(#clip0_6077_2)">
<mask id="mask0_6077_2" style="mask-type:luminance" maskUnits="userSpaceOnUse" x="0" y="0" width="3002" height="1068">
<path d="M0 -3.8032e-05H3002V1068H0V-3.8032e-05Z" fill="white"/>
</mask>
<g mask="url(#mask0_6077_2)">
<path d="M1122.64 669.007L994.702 341.519C1088.76 157.276 1181.44 28.2629 1297.31 28.2629C1375.92 28.2629 1452.28 58.9519 1452.28 209.922C1452.28 368.38 1363.3 494.75 1263.79 677.757C1232.1 736.047 1146.78 730.807 1122.64 669.007ZM814.359 654.893C775.454 743.063 649.501 740.548 614.188 650.883L448.1 229.176C384.031 67.4029 455.416 31.687 564.461 30.1884H569.225C667.367 31.687 700.604 61.4131 767.397 229.176L878.745 508.414C854.59 563.276 834.427 609.413 814.359 654.893ZM2994.74 670.51C2988.34 863.757 2971.95 955.157 2957.95 1004.3C2951.37 1027.36 2926.12 1039.45 2903.92 1030.38C2839.22 1003.91 2810.73 925.721 2775.85 723.814L2760.71 649.97C2730.42 474.833 2694.96 480.877 2535.49 370.192C2499.41 345.152 2464.63 341.891 2422.58 367.213L2530.24 246.941C2722.16 50.5282 2868 16.8783 2994.18 14.7667V-0.00101459H2059.68V13.5861C2141.58 13.5861 2134.88 147.99 2134.88 333.636V581.159C2134.88 816.607 2054.96 1035.92 1781.77 1035.92C1496.5 1035.92 1489.05 780.387 1489.05 567.576V353.308C1488.95 341.923 1489.83 330.534 1491.82 319.322C1497.78 285.74 1501.03 252.754 1501.03 220.189C1501.03 85.3812 1426.8 -0.00101459 1297.31 -0.00101459C1177.36 -0.00101459 1072.56 117.251 979.87 301.493L951.083 229.176C888.377 67.4029 863.981 10.4845 925.952 10.4845V-0.00101459H-0.00195312V10.4845C98.1442 11.983 177.912 17.278 267.143 229.176L601.1 1068H662.103L719.351 937.687C794.323 774.411 831.293 688.334 893.995 544.539L1101.35 1068H1162.36L1222.33 931.693C1263.49 842.187 1278.01 819.768 1314.72 741.261C1325.48 864.021 1351.17 918.891 1410.59 979.479C1491.03 1061.49 1648.18 1068 1780.31 1068C2095.76 1068 2168.17 768.312 2168.17 581.159V229.494C2168.17 101.203 2284.63 31.7778 2397.84 31.7778C2398.14 31.7778 2402.82 31.8232 2406.57 31.8232C2561.33 33.9349 2601.37 101.743 2483.62 243.117C2483.62 243.117 2379.18 371.063 2342.3 411.924C2234.04 531.892 2181.52 659.112 2161.2 878.611C2158.31 909.813 2147.71 939.789 2130.79 966.164C2099.54 1014.92 2068.41 1056.86 1986.82 1057.33V1067.22C2105.64 1067.32 2296.73 1067.33 2415.55 1067.43V1057.37C2317.25 1056.25 2264 996.504 2235.23 934.817C2209.17 878.929 2202.86 815.812 2214.79 755.311C2238.97 632.768 2263.67 568.789 2323.34 496.789C2326.29 493.229 2332.3 485.464 2335.01 482.453C2367.27 446.582 2425 484.042 2465.08 515.067C2559.76 588.374 2566.13 605.372 2578.66 679.51L2644.05 1068H3001.99L3002 670.51H2994.74Z" fill="white"/>
</g>
</g>
<defs>
<clipPath id="clip0_6077_2">
<rect width="3002" height="1068" fill="white"/>
</clipPath>
</defs>
</svg>
